<svg xmlns="http://www.w3.org/2000/svg" xmlns:xlink="http://www.w3.org/1999/xlink" width="500" zoomAndPan="magnify" viewBox="0 0 375 374.999991" height="500" preserveAspectRatio="xMidYMid meet" version="1.0"><defs><g/><clipPath id="5b7a15d48c"><path d="M 119.097656 165 L 355 165 L 355 187 L 119.097656 187 Z M 119.097656 165 " clip-rule="nonzero"/></clipPath></defs><g clip-path="url(#5b7a15d48c)"><path fill="#000000" d="M 120.648438 178.097656 C 119.996094 179.117188 119.117188 178.3125 119.679688 177.417969 C 140.457031 144.546875 153.488281 189.140625 195.257812 185.398438 C 259.570312 179.632812 313.328125 161.234375 353.339844 177.074219 C 356.128906 178.179688 354.167969 180.496094 351.816406 179.414062 C 318.511719 164.085938 256.648438 180.136719 194.976562 186.640625 C 153.191406 191.046875 141.378906 145.761719 120.648438 178.097656 Z M 120.648438 178.097656 " fill-opacity="1" fill-rule="nonzero"/></g><g fill="#000000" fill-opacity="1"><g transform="translate(44.399416, 194.437487)"><g><path d="M 14.925781 5.25 C -8.175781 20.699219 -7.199219 48.148438 0.824219 48.074219 C 9.601562 48 15.898438 30.375 20.476562 3.449219 C 26.550781 -0.148438 36.824219 -8.699219 44.25 -17.550781 C 44.25 -17.925781 43.050781 -17.925781 42.824219 -17.625 C 36.449219 -10.273438 27 -2.023438 20.550781 2.023438 C 21.976562 -5.851562 23.851562 -18.75 25.875 -27.675781 C 26.324219 -30 21.226562 -30.300781 20.25 -27.601562 L 19.726562 -25.199219 C 17.550781 -28.273438 14.550781 -29.625 11.175781 -29.175781 C -2.25 -27.300781 -6 -2.550781 4.351562 -2.023438 C 6.523438 -1.875 10.726562 -2.023438 18.148438 -13.726562 C 16.574219 -5.101562 16.199219 -1.574219 14.925781 5.25 Z M 14.699219 6.898438 C 11.398438 26.25 6.375 45.898438 1.199219 46.949219 C -5.476562 48.148438 -6.824219 21.898438 14.699219 6.898438 Z M 19.425781 -23.175781 C 18.824219 -19.125 18.523438 -16.574219 18.375 -16.351562 C 11.925781 -5.550781 7.273438 -2.625 5.023438 -3.074219 C 0.523438 -3.976562 2.925781 -25.351562 12.449219 -27.824219 C 15.074219 -28.5 18.601562 -25.574219 19.425781 -23.175781 Z M 19.425781 -23.175781 "/></g></g></g><g fill="#000000" fill-opacity="1"><g transform="translate(87.149375, 194.437487)"><g><path d="M 6.375 18.898438 C 16.199219 16.800781 16.726562 6.375 12.976562 -2.25 C 18.449219 -4.425781 27 -8.550781 33.449219 -17.550781 C 33.824219 -18.074219 32.925781 -18.375 32.023438 -17.625 C 27.074219 -10.425781 18.898438 -5.625 12.523438 -3.148438 C 9.449219 -9.449219 6.898438 -13.125 4.273438 -18.074219 C 0.824219 -24.523438 4.199219 -29.25 9 -30.523438 C 13.351562 -31.648438 17.476562 -25.949219 13.273438 -20.550781 L 14.699219 -20.550781 C 18.523438 -26.25 14.851562 -32.324219 8.925781 -31.648438 C 1.351562 -30.824219 -3.449219 -24.074219 1.050781 -15 C 3.449219 -10.199219 7.050781 -4.125 8.773438 -1.050781 C -8.101562 4.648438 -3.898438 21.074219 6.375 18.898438 Z M 6.898438 17.699219 C -2.25 20.851562 -6.898438 5.699219 9.148438 -0.148438 C 12.601562 8.101562 10.574219 16.425781 6.898438 17.699219 Z M 6.898438 17.699219 "/></g></g></g><g fill="#000000" fill-opacity="1"><g transform="translate(158.294957, 216.205635)"><g><path d="M 10.609375 -0.984375 C 10.265625 -0.703125 9.71875 -0.445312 8.96875 -0.21875 C 8.226562 0.0078125 7.539062 0.125 6.90625 0.125 C 5.71875 0.125 4.671875 -0.117188 3.765625 -0.609375 C 2.859375 -1.097656 2.160156 -1.769531 1.671875 -2.625 C 1.179688 -3.476562 0.9375 -4.4375 0.9375 -5.5 C 0.9375 -6.75 1.195312 -7.828125 1.71875 -8.734375 C 2.25 -9.648438 2.960938 -10.347656 3.859375 -10.828125 C 4.753906 -11.316406 5.734375 -11.5625 6.796875 -11.5625 C 7.441406 -11.5625 8.046875 -11.484375 8.609375 -11.328125 C 9.179688 -11.171875 9.695312 -10.96875 10.15625 -10.71875 L 9.640625 -9.3125 C 9.304688 -9.5 8.882812 -9.664062 8.375 -9.8125 C 7.863281 -9.957031 7.398438 -10.03125 6.984375 -10.03125 C 6.097656 -10.03125 5.316406 -9.847656 4.640625 -9.484375 C 3.960938 -9.128906 3.4375 -8.617188 3.0625 -7.953125 C 2.695312 -7.285156 2.515625 -6.507812 2.515625 -5.625 C 2.515625 -4.800781 2.695312 -4.066406 3.0625 -3.421875 C 3.4375 -2.785156 3.957031 -2.289062 4.625 -1.9375 C 5.300781 -1.582031 6.070312 -1.40625 6.9375 -1.40625 C 7.34375 -1.40625 7.734375 -1.441406 8.109375 -1.515625 C 8.492188 -1.597656 8.8125 -1.710938 9.0625 -1.859375 L 9.0625 -4.125 L 6.78125 -4.125 L 6.78125 -5.59375 L 10.609375 -5.59375 Z M 10.609375 -0.984375 "/></g></g></g><g fill="#000000" fill-opacity="1"><g transform="translate(174.243017, 216.205635)"><g><path d="M 3.03125 -4.046875 C 3.03125 -3.535156 3.148438 -3.078125 3.390625 -2.671875 C 3.640625 -2.273438 3.972656 -1.957031 4.390625 -1.71875 C 4.804688 -1.476562 5.265625 -1.359375 5.765625 -1.359375 C 6.296875 -1.359375 6.773438 -1.472656 7.203125 -1.703125 C 7.628906 -1.941406 7.960938 -2.265625 8.203125 -2.671875 C 8.453125 -3.078125 8.578125 -3.535156 8.578125 -4.046875 L 8.578125 -11.4375 L 10.078125 -11.4375 L 10.078125 -4 C 10.078125 -3.1875 9.882812 -2.46875 9.5 -1.84375 C 9.125 -1.21875 8.609375 -0.734375 7.953125 -0.390625 C 7.296875 -0.046875 6.566406 0.125 5.765625 0.125 C 4.972656 0.125 4.25 -0.046875 3.59375 -0.390625 C 2.945312 -0.734375 2.4375 -1.21875 2.0625 -1.84375 C 1.6875 -2.46875 1.5 -3.1875 1.5 -4 L 1.5 -11.4375 L 3.03125 -11.4375 Z M 3.03125 -4.046875 "/></g></g></g><g fill="#000000" fill-opacity="1"><g transform="translate(189.874962, 216.205635)"><g><path d="M 13.015625 -11.796875 L 13.015625 0 L 11.5 0 L 11.5 -7.40625 L 7.296875 -1.4375 L 7.265625 -1.4375 L 3.125 -7.1875 L 3.125 0 L 1.640625 0 L 1.640625 -11.796875 L 1.65625 -11.796875 L 7.296875 -3.828125 L 13 -11.796875 Z M 13.015625 -11.796875 "/></g></g></g><g fill="#000000" fill-opacity="1"><g transform="translate(208.589001, 216.205635)"><g/></g></g><g fill="#000000" fill-opacity="1"><g transform="translate(217.645815, 216.205635)"><g><path d="M 7.5625 -9.390625 C 7.144531 -9.609375 6.703125 -9.785156 6.234375 -9.921875 C 5.773438 -10.066406 5.34375 -10.140625 4.9375 -10.140625 C 4.3125 -10.140625 3.816406 -10 3.453125 -9.71875 C 3.085938 -9.4375 2.90625 -9.054688 2.90625 -8.578125 C 2.90625 -8.097656 3.117188 -7.707031 3.546875 -7.40625 C 3.972656 -7.101562 4.582031 -6.804688 5.375 -6.515625 C 5.96875 -6.304688 6.46875 -6.078125 6.875 -5.828125 C 7.28125 -5.578125 7.613281 -5.234375 7.875 -4.796875 C 8.144531 -4.359375 8.28125 -3.800781 8.28125 -3.125 C 8.28125 -2.519531 8.128906 -1.96875 7.828125 -1.46875 C 7.523438 -0.976562 7.085938 -0.585938 6.515625 -0.296875 C 5.953125 -0.015625 5.289062 0.125 4.53125 0.125 C 3.832031 0.125 3.15625 0.015625 2.5 -0.203125 C 1.84375 -0.429688 1.269531 -0.722656 0.78125 -1.078125 L 1.453125 -2.296875 C 1.847656 -1.992188 2.316406 -1.738281 2.859375 -1.53125 C 3.410156 -1.332031 3.921875 -1.234375 4.390625 -1.234375 C 5.003906 -1.234375 5.539062 -1.390625 6 -1.703125 C 6.457031 -2.023438 6.6875 -2.492188 6.6875 -3.109375 C 6.6875 -3.640625 6.492188 -4.0625 6.109375 -4.375 C 5.722656 -4.6875 5.179688 -4.976562 4.484375 -5.25 C 3.847656 -5.488281 3.316406 -5.722656 2.890625 -5.953125 C 2.460938 -6.191406 2.09375 -6.515625 1.78125 -6.921875 C 1.476562 -7.328125 1.328125 -7.832031 1.328125 -8.4375 C 1.328125 -9.332031 1.640625 -10.054688 2.265625 -10.609375 C 2.890625 -11.171875 3.707031 -11.46875 4.71875 -11.5 C 5.945312 -11.5 7.085938 -11.191406 8.140625 -10.578125 Z M 7.5625 -9.390625 "/></g></g></g><g fill="#000000" fill-opacity="1"><g transform="translate(230.906913, 216.205635)"><g><path d="M 8.390625 -11.4375 L 8.390625 -9.96875 L 5.328125 -9.96875 L 5.328125 0 L 3.796875 0 L 3.796875 -9.96875 L 0.8125 -9.96875 L 0.8125 -11.4375 Z M 8.390625 -11.4375 "/></g></g></g><g fill="#000000" fill-opacity="1"><g transform="translate(244.168011, 216.205635)"><g><path d="M 7.9375 0 L 5.25 -4.21875 C 5.164062 -4.207031 5.039062 -4.203125 4.875 -4.203125 L 3.171875 -4.203125 L 3.171875 0 L 1.640625 0 L 1.640625 -11.4375 L 4.703125 -11.4375 C 5.472656 -11.4375 6.164062 -11.296875 6.78125 -11.015625 C 7.394531 -10.742188 7.875 -10.34375 8.21875 -9.8125 C 8.570312 -9.28125 8.75 -8.640625 8.75 -7.890625 C 8.75 -7.179688 8.59375 -6.53125 8.28125 -5.9375 C 7.96875 -5.351562 7.488281 -4.90625 6.84375 -4.59375 L 9.71875 0 Z M 4.84375 -5.6875 C 5.664062 -5.6875 6.253906 -5.898438 6.609375 -6.328125 C 6.972656 -6.765625 7.15625 -7.265625 7.15625 -7.828125 C 7.15625 -8.160156 7.078125 -8.488281 6.921875 -8.8125 C 6.773438 -9.144531 6.535156 -9.421875 6.203125 -9.640625 C 5.867188 -9.859375 5.453125 -9.96875 4.953125 -9.96875 L 3.171875 -9.96875 L 3.171875 -5.6875 Z M 4.84375 -5.6875 "/></g></g></g><g fill="#000000" fill-opacity="1"><g transform="translate(258.661953, 216.205635)"><g><path d="M 9.078125 -11.4375 L 9.078125 -9.96875 L 3.171875 -9.96875 L 3.171875 -6.484375 L 8.4375 -6.484375 L 8.4375 -5.015625 L 3.171875 -5.015625 L 3.171875 -1.484375 L 9.296875 -1.484375 L 9.296875 0 L 1.640625 0 L 1.640625 -11.4375 Z M 9.078125 -11.4375 "/></g></g></g><g fill="#000000" fill-opacity="1"><g transform="translate(273.045258, 216.205635)"><g><path d="M 9.078125 -11.4375 L 9.078125 -9.96875 L 3.171875 -9.96875 L 3.171875 -6.484375 L 8.4375 -6.484375 L 8.4375 -5.015625 L 3.171875 -5.015625 L 3.171875 -1.484375 L 9.296875 -1.484375 L 9.296875 0 L 1.640625 0 L 1.640625 -11.4375 Z M 9.078125 -11.4375 "/></g></g></g><g fill="#000000" fill-opacity="1"><g transform="translate(287.428564, 216.205635)"><g><path d="M 8.390625 -11.4375 L 8.390625 -9.96875 L 5.328125 -9.96875 L 5.328125 0 L 3.796875 0 L 3.796875 -9.96875 L 0.8125 -9.96875 L 0.8125 -11.4375 Z M 8.390625 -11.4375 "/></g></g></g></svg>